<!-- SPDX-License-Identifier: GPL-2.0-or-later -->
<svg xmlns="http://www.w3.org/2000/svg" width="168" height="168" viewBox="0 0 168 168">
<defs>
 <style id="current-color-scheme">.ColorScheme-Background { color:#f8f9fc; }</style>
 <linearGradient id="shadow" x1="0" y1="0" x2="0" y2="1"><stop stop-color="#000" stop-opacity="0"/><stop offset=".35" stop-color="#000" stop-opacity=".015"/><stop offset=".7" stop-color="#000" stop-opacity=".06"/><stop offset="1" stop-color="#000" stop-opacity=".12"/></linearGradient>
 <radialGradient id="corner-shadow" cx="1" cy="1" r="1"><stop stop-color="#000" stop-opacity=".12"/><stop offset=".55" stop-color="#000" stop-opacity=".12"/><stop offset=".8" stop-color="#000" stop-opacity=".035"/><stop offset="1" stop-color="#000" stop-opacity="0"/></radialGradient>
</defs>
<g id="topleft">
 <path d="M0 0H52V52H0Z M24 52C24 24 24 24 52 24V52Z" fill-rule="evenodd" fill="url(#corner-shadow)"/>
 <path class="ColorScheme-Background" d="M24 52 C24 24 24 24 52 24 L52 52Z" fill="currentColor" fill-opacity=".8"/>
 <path d="M24.5 51.5 C24.5 24.5 24.5 24.5 51.5 24.5" fill="none" stroke="#fff" stroke-opacity=".5"/>
</g>
<g id="mask-topleft"><rect width="52" height="52" fill="#fff" fill-opacity="0"/><path d="M24 52 C24 24 24 24 52 24 L52 52Z" fill="#fff"/></g>
<g id="topright" transform="translate(168 0) scale(-1 1)">
 <path d="M0 0H52V52H0Z M24 52C24 24 24 24 52 24V52Z" fill-rule="evenodd" fill="url(#corner-shadow)"/>
 <path class="ColorScheme-Background" d="M24 52 C24 24 24 24 52 24 L52 52Z" fill="currentColor" fill-opacity=".8"/>
 <path d="M24.5 51.5 C24.5 24.5 24.5 24.5 51.5 24.5" fill="none" stroke="#fff" stroke-opacity=".5"/>
</g>
<g id="mask-topright" transform="translate(168 0) scale(-1 1)"><rect width="52" height="52" fill="#fff" fill-opacity="0"/><path d="M24 52 C24 24 24 24 52 24 L52 52Z" fill="#fff"/></g>
<g id="bottomleft" transform="translate(0 168) scale(1 -1)">
 <path d="M0 0H52V52H0Z M24 52C24 24 24 24 52 24V52Z" fill-rule="evenodd" fill="url(#corner-shadow)"/>
 <path class="ColorScheme-Background" d="M24 52 C24 24 24 24 52 24 L52 52Z" fill="currentColor" fill-opacity=".8"/>
 <path d="M24.5 51.5 C24.5 24.5 24.5 24.5 51.5 24.5" fill="none" stroke="#fff" stroke-opacity=".2"/>
</g>
<g id="mask-bottomleft" transform="translate(0 168) scale(1 -1)"><rect width="52" height="52" fill="#fff" fill-opacity="0"/><path d="M24 52 C24 24 24 24 52 24 L52 52Z" fill="#fff"/></g>
<g id="bottomright" transform="translate(168 168) scale(-1 -1)">
 <path d="M0 0H52V52H0Z M24 52C24 24 24 24 52 24V52Z" fill-rule="evenodd" fill="url(#corner-shadow)"/>
 <path class="ColorScheme-Background" d="M24 52 C24 24 24 24 52 24 L52 52Z" fill="currentColor" fill-opacity=".8"/>
 <path d="M24.5 51.5 C24.5 24.5 24.5 24.5 51.5 24.5" fill="none" stroke="#fff" stroke-opacity=".2"/>
</g>
<g id="mask-bottomright" transform="translate(168 168) scale(-1 -1)"><rect width="52" height="52" fill="#fff" fill-opacity="0"/><path d="M24 52 C24 24 24 24 52 24 L52 52Z" fill="#fff"/></g>
<g id="top">
 <rect x="52" width="64" height="24" fill="url(#shadow)"/>
 <rect class="ColorScheme-Background" x="52" y="24" width="64" height="28" fill="currentColor" fill-opacity=".8"/>
 <path d="M52.5 24.5H115.5" stroke="#fff" stroke-opacity=".5"/>
</g>
<g id="mask-top"><rect x="52" width="64" height="52" fill="#fff" fill-opacity="0"/><rect x="52" y="24" width="64" height="28" fill="#fff"/></g>
<g id="bottom" transform="translate(0 168) scale(1 -1)">
 <rect x="52" width="64" height="24" fill="url(#shadow)"/>
 <rect class="ColorScheme-Background" x="52" y="24" width="64" height="28" fill="currentColor" fill-opacity=".8"/>
 <path d="M52.5 24.5H115.5" stroke="#fff" stroke-opacity=".2"/>
</g>
<g id="mask-bottom" transform="translate(0 168) scale(1 -1)"><rect x="52" width="64" height="52" fill="#fff" fill-opacity="0"/><rect x="52" y="24" width="64" height="28" fill="#fff"/></g>
<g id="left" transform="matrix(0 1 1 0 0 0)">
 <rect x="52" width="64" height="24" fill="url(#shadow)"/>
 <rect class="ColorScheme-Background" x="52" y="24" width="64" height="28" fill="currentColor" fill-opacity=".8"/>
 <path d="M52.5 24.5H115.5" stroke="#fff" stroke-opacity=".2"/>
</g>
<g id="mask-left" transform="matrix(0 1 1 0 0 0)"><rect x="52" width="64" height="52" fill="#fff" fill-opacity="0"/><rect x="52" y="24" width="64" height="28" fill="#fff"/></g>
<g id="right" transform="matrix(0 1 -1 0 168 0)">
 <rect x="52" width="64" height="24" fill="url(#shadow)"/>
 <rect class="ColorScheme-Background" x="52" y="24" width="64" height="28" fill="currentColor" fill-opacity=".8"/>
 <path d="M52.5 24.5H115.5" stroke="#fff" stroke-opacity=".2"/>
</g>
<g id="mask-right" transform="matrix(0 1 -1 0 168 0)"><rect x="52" width="64" height="52" fill="#fff" fill-opacity="0"/><rect x="52" y="24" width="64" height="28" fill="#fff"/></g>
<rect id="center" class="ColorScheme-Background" x="52" y="52" width="64" height="64" fill="currentColor" fill-opacity=".8"/>
<rect id="mask-center" x="52" y="52" width="64" height="64" fill="#fff"/>
<rect id="hint-left-margin" width="24" height="24" fill="none"/>
<rect id="hint-right-margin" width="24" height="24" fill="none"/>
<rect id="hint-top-margin" width="24" height="24" fill="none"/>
<rect id="hint-bottom-margin" width="24" height="24" fill="none"/>
</svg>
